<mxfile host="65bd71144e">
    <diagram id="fkDbz4UDBvTtahOPf0KS" name="page-1">
        <mxGraphModel dx="2040" dy="789" grid="0" gridSize="10" guides="1" tooltips="1" connect="1" arrows="1" fold="1" page="1" pageScale="1" pageWidth="850" pageHeight="1100" math="0" shadow="0">
            <root>
                <mxCell id="0"/>
                <mxCell id="1" parent="0"/>
                <mxCell id="3" value="&lt;font style=&quot;font-size: 20px;&quot;&gt;&lt;font style=&quot;font-size: 20px;&quot;&gt;&lt;font style=&quot;font-size: 20px;&quot;&gt;&lt;font style=&quot;font-size: 24px;&quot;&gt;Algoritma deskriptif menghitung luas dan keliling lingkaran :&lt;/font&gt;&lt;br&gt;&lt;br style=&quot;&quot;&gt;&lt;span style=&quot;font-weight: normal;&quot;&gt;&lt;span style=&quot;&quot;&gt;1. mulai&lt;br&gt;&lt;/span&gt;2. deklarasi variable phi&lt;br&gt;&lt;span style=&quot;border-color: var(--border-color);&quot;&gt;3. deklarasi variable luas&lt;/span&gt;&lt;br style=&quot;border-color: var(--border-color);&quot;&gt;&lt;span style=&quot;border-color: var(--border-color);&quot;&gt;4. deklarasi variable keliling&lt;/span&gt;&lt;br style=&quot;&quot;&gt;&lt;span style=&quot;&quot;&gt;5. masukan r&lt;br&gt;6. cek r adalah number&lt;/span&gt;&lt;br&gt;&lt;span style=&quot;&quot;&gt;7. jika &quot;false&quot; otput &quot;masukan angka&quot; kembali masukan r&lt;/span&gt;&lt;br&gt;&lt;span style=&quot;&quot;&gt;8. jika &quot;true&quot; cek nilai r habis di bagi 7&lt;/span&gt;&lt;br&gt;&lt;span style=&quot;&quot;&gt;9. jika &quot;true&quot; maka nilai phi 22/7&lt;/span&gt;&lt;br&gt;&lt;span style=&quot;&quot;&gt;10. jika &quot;false&quot; maka nilai phi 3.14&lt;/span&gt;&lt;/span&gt;&lt;/font&gt;&lt;/font&gt;&lt;span style=&quot;font-weight: normal;&quot;&gt;&lt;br&gt;&lt;span style=&quot;&quot;&gt;11. hitung luas =&amp;nbsp;&lt;/span&gt;&lt;span style=&quot;&quot;&gt;phi * r^2&lt;br&gt;12. hitung keliling&amp;nbsp;&lt;/span&gt;&lt;span style=&quot;&quot;&gt;= 2 * phi * r&lt;br&gt;13. cetak luas&lt;br&gt;14. cetak keliling&lt;/span&gt;&lt;br&gt;&lt;span style=&quot;&quot;&gt;14. selesai&lt;/span&gt;&lt;/span&gt;&lt;br&gt;&lt;/font&gt;" style="text;html=1;align=left;verticalAlign=middle;resizable=0;points=[];autosize=1;strokeColor=default;fillColor=none;fontSize=16;fontStyle=1" parent="1" vertex="1">
                    <mxGeometry x="-803.5" y="279" width="710" height="425" as="geometry"/>
                </mxCell>
                <mxCell id="2HTJQ31TlJX6B8NfkLum-3" value="&lt;div style=&quot;border-color: var(--border-color); text-align: start; font-size: 24px;&quot;&gt;&lt;span style=&quot;border-color: var(--border-color); font-family: Helvetica; background-color: initial;&quot;&gt;&lt;font style=&quot;border-color: var(--border-color);&quot;&gt;&lt;b style=&quot;border-color: var(--border-color);&quot;&gt;Algoritma Pseudocode menghitung luas dan keliling lingkaran :&lt;/b&gt;&lt;/font&gt;&lt;/span&gt;&lt;/div&gt;&lt;div style=&quot;border-color: var(--border-color); text-align: start; font-size: 24px;&quot;&gt;&lt;span style=&quot;border-color: var(--border-color); font-family: Helvetica; background-color: initial;&quot;&gt;&lt;font style=&quot;border-color: var(--border-color); font-size: 20px;&quot;&gt;&lt;br style=&quot;border-color: var(--border-color);&quot;&gt;&lt;/font&gt;&lt;/span&gt;&lt;/div&gt;&lt;div style=&quot;border-color: var(--border-color); text-align: start;&quot;&gt;&lt;span style=&quot;border-color: var(--border-color); font-family: Helvetica; background-color: initial;&quot;&gt;Deklarasi:&lt;/span&gt;&lt;/div&gt;&lt;div style=&quot;border-color: var(--border-color); text-align: start;&quot;&gt;&lt;span style=&quot;border-color: var(--border-color); font-family: Helvetica; background-color: initial;&quot;&gt;phi, luas, keliling : num;&lt;/span&gt;&lt;/div&gt;&lt;div style=&quot;border-color: var(--border-color); text-align: start;&quot;&gt;&lt;span style=&quot;border-color: var(--border-color); font-family: Helvetica; background-color: initial;&quot;&gt;&lt;br style=&quot;border-color: var(--border-color);&quot;&gt;&lt;/span&gt;&lt;/div&gt;&lt;div style=&quot;border-color: var(--border-color); text-align: start;&quot;&gt;&lt;span style=&quot;border-color: var(--border-color); font-family: Helvetica; background-color: initial;&quot;&gt;Mulai&lt;/span&gt;&lt;/div&gt;&lt;div style=&quot;border-color: var(--border-color); text-align: start;&quot;&gt;&lt;span style=&quot;border-color: var(--border-color); font-family: Helvetica; background-color: initial;&quot;&gt;&lt;span style=&quot;border-color: var(--border-color);&quot;&gt;&#9;&lt;/span&gt;&lt;span style=&quot;white-space: pre;&quot;&gt;&#9;&lt;/span&gt;input (r)&lt;br style=&quot;border-color: var(--border-color);&quot;&gt;&lt;/span&gt;&lt;/div&gt;&lt;div style=&quot;border-color: var(--border-color); text-align: start;&quot;&gt;&lt;span style=&quot;border-color: var(--border-color); font-family: Helvetica; background-color: initial;&quot;&gt;&lt;span style=&quot;border-color: var(--border-color);&quot;&gt;&#9;&lt;/span&gt;&lt;span style=&quot;white-space: pre;&quot;&gt;&#9;&lt;/span&gt;cek r == num&lt;br style=&quot;border-color: var(--border-color);&quot;&gt;&lt;/span&gt;&lt;/div&gt;&lt;div style=&quot;border-color: var(--border-color); text-align: start;&quot;&gt;&lt;span style=&quot;border-color: var(--border-color); font-family: Helvetica; background-color: initial;&quot;&gt;&lt;span style=&quot;border-color: var(--border-color);&quot;&gt;&#9;&lt;/span&gt;&lt;span style=&quot;white-space: pre;&quot;&gt;&#9;&lt;/span&gt;jika &quot;false&quot;&amp;nbsp; input (r)&lt;br style=&quot;border-color: var(--border-color);&quot;&gt;&lt;/span&gt;&lt;/div&gt;&lt;div style=&quot;border-color: var(--border-color); text-align: start;&quot;&gt;&lt;span style=&quot;border-color: var(--border-color); font-family: Helvetica; background-color: initial;&quot;&gt;&lt;span style=&quot;border-color: var(--border-color);&quot;&gt;&#9;&lt;/span&gt;&lt;span style=&quot;white-space: pre;&quot;&gt;&#9;&lt;/span&gt;jika &quot;true&quot;&amp;nbsp; cek r % 7 == 0&lt;br style=&quot;border-color: var(--border-color);&quot;&gt;&lt;/span&gt;&lt;/div&gt;&lt;div style=&quot;border-color: var(--border-color); text-align: start;&quot;&gt;&lt;span style=&quot;border-color: var(--border-color); font-family: Helvetica; background-color: initial;&quot;&gt;&lt;span style=&quot;border-color: var(--border-color);&quot;&gt;&#9;&lt;/span&gt;&lt;span style=&quot;white-space: pre;&quot;&gt;&#9;&lt;/span&gt;jika &quot;true&quot; assign phi = 22/7&lt;br style=&quot;border-color: var(--border-color);&quot;&gt;&lt;/span&gt;&lt;/div&gt;&lt;div style=&quot;border-color: var(--border-color); text-align: start;&quot;&gt;&lt;span style=&quot;border-color: var(--border-color); font-family: Helvetica; background-color: initial;&quot;&gt;&lt;span style=&quot;border-color: var(--border-color);&quot;&gt;&#9;&lt;/span&gt;&lt;span style=&quot;white-space: pre;&quot;&gt;&#9;&lt;/span&gt;jika &quot;false&quot; assign phi = 3.14&lt;br style=&quot;border-color: var(--border-color);&quot;&gt;&lt;/span&gt;&lt;/div&gt;&lt;div style=&quot;border-color: var(--border-color); text-align: start;&quot;&gt;&lt;span style=&quot;border-color: var(--border-color); font-family: Helvetica; background-color: initial;&quot;&gt;&lt;span style=&quot;border-color: var(--border-color);&quot;&gt;&#9;&lt;/span&gt;&lt;span style=&quot;white-space: pre;&quot;&gt;&#9;&lt;/span&gt;assign luas = phi * r^2&lt;br style=&quot;border-color: var(--border-color);&quot;&gt;&lt;/span&gt;&lt;/div&gt;&lt;div style=&quot;border-color: var(--border-color); text-align: start;&quot;&gt;&lt;span style=&quot;border-color: var(--border-color); font-family: Helvetica; background-color: initial;&quot;&gt;&lt;span style=&quot;border-color: var(--border-color);&quot;&gt;&#9;&lt;/span&gt;&lt;span style=&quot;white-space: pre;&quot;&gt;&#9;&lt;/span&gt;assign keliling = 2 * phi * r&lt;br style=&quot;border-color: var(--border-color);&quot;&gt;&lt;/span&gt;&lt;/div&gt;&lt;div style=&quot;border-color: var(--border-color); text-align: start;&quot;&gt;&lt;span style=&quot;border-color: var(--border-color); font-family: Helvetica; background-color: initial;&quot;&gt;&lt;span style=&quot;border-color: var(--border-color);&quot;&gt;&#9;&lt;/span&gt;&lt;span style=&quot;white-space: pre;&quot;&gt;&#9;&lt;/span&gt;cetak luas&lt;br style=&quot;border-color: var(--border-color);&quot;&gt;&lt;/span&gt;&lt;/div&gt;&lt;div style=&quot;border-color: var(--border-color); text-align: start;&quot;&gt;&lt;span style=&quot;border-color: var(--border-color); font-family: Helvetica; background-color: initial;&quot;&gt;&lt;span style=&quot;border-color: var(--border-color);&quot;&gt;&#9;&lt;/span&gt;&lt;span style=&quot;white-space: pre;&quot;&gt;&#9;&lt;/span&gt;cetak keliling&lt;br style=&quot;border-color: var(--border-color);&quot;&gt;&lt;/span&gt;&lt;/div&gt;&lt;div style=&quot;border-color: var(--border-color); text-align: start;&quot;&gt;&lt;span style=&quot;border-color: var(--border-color); font-family: Helvetica; background-color: initial;&quot;&gt;Selesai&lt;/span&gt;&lt;/div&gt;&lt;div&gt;&lt;span style=&quot;border-color: var(--border-color); font-family: Helvetica; background-color: initial;&quot;&gt;&lt;br&gt;&lt;/span&gt;&lt;/div&gt;" style="text;html=1;align=center;verticalAlign=middle;resizable=0;points=[];autosize=1;strokeColor=default;fillColor=none;fontSize=20;fontFamily=Architects Daughter;sketch=1;hachureGap=4;jiggle=2;curveFitting=1;fontSource=https%3A%2F%2Ffonts.googleapis.com%2Fcss%3Ffamily%3DArchitects%2BDaughter;" parent="1" vertex="1">
                    <mxGeometry x="-821" y="805" width="745" height="481" as="geometry"/>
                </mxCell>
                <mxCell id="7" value="" style="group;strokeColor=default;shadow=0;" parent="1" vertex="1" connectable="0">
                    <mxGeometry x="-44" y="269" width="850" height="1630" as="geometry"/>
                </mxCell>
                <mxCell id="2" value="&lt;div style=&quot;text-align: left;&quot;&gt;&lt;font face=&quot;Söhne, ui-sans-serif, system-ui, -apple-system, Segoe UI, Roboto, Ubuntu, Cantarell, Noto Sans, sans-serif, Helvetica Neue, Arial, Apple Color Emoji, Segoe UI Emoji, Segoe UI Symbol, Noto Color Emoji&quot; color=&quot;#d1d5db&quot;&gt;&lt;span style=&quot;font-size: 16px;&quot;&gt;&lt;br&gt;&lt;/span&gt;&lt;/font&gt;&lt;/div&gt;" style="text;html=1;align=center;verticalAlign=middle;resizable=0;points=[];autosize=1;" parent="7" vertex="1">
                    <mxGeometry x="165.5737704918033" y="20.72736520854527" width="20" height="30" as="geometry"/>
                </mxCell>
                <mxCell id="fiGlXiQjLdD5dvVvYB1j-3" value="&lt;span style=&quot;color: rgba(0, 0, 0, 0); font-family: monospace; font-size: 0px; text-align: start;&quot;&gt;%3CmxGraphModel%3E%3Croot%3E%3CmxCell%20id%3D%220%22%2F%3E%3CmxCell%20id%3D%221%22%20parent%3D%220%22%2F%3E%3CmxCell%20id%3D%222%22%20value%3D%22%26lt%3Bb%26gt%3B%26lt%3Bfont%20style%3D%26quot%3Bfont-size%3A%2024px%3B%26quot%3B%26gt%3BAlgoritma%20Flowchart%20menghitung%20luas%20dan%20keliling%20lingkaran%20%3A%26lt%3B%2Ffont%26gt%3B%26lt%3B%2Fb%26gt%3B%22%20style%3D%22text%3Bhtml%3D1%3Balign%3Dcenter%3BverticalAlign%3Dmiddle%3Bresizable%3D0%3Bpoints%3D%5B%5D%3Bautosize%3D1%3BstrokeColor%3Dnone%3BfillColor%3Dnone%3BfontSize%3D20%3BfontFamily%3DHelvetica%3Bsketch%3D1%3BhachureGap%3D4%3Bjiggle%3D2%3BcurveFitting%3D1%3BfontSource%3Dhttps%253A%252F%252Ffonts.googleapis.com%252Fcss%253Ffamily%253DArchitects%252BDaughter%3B%22%20vertex%3D%221%22%20parent%3D%221%22%3E%3CmxGeometry%20x%3D%2270%22%20y%3D%2225%22%20width%3D%22715%22%20height%3D%2241%22%20as%3D%22geometry%22%2F%3E%3C%2FmxCell%3E%3CmxCell%20id%3D%223%22%20value%3D%22%22%20style%3D%22edgeStyle%3Dnone%3Bsketch%3D1%3BhachureGap%3D4%3Bjiggle%3D2%3BcurveFitting%3D1%3Bhtml%3D1%3BfontFamily%3DHelvetica%3BfontSize%3D24%3B%22%20edge%3D%221%22%20source%3D%224%22%20target%3D%226%22%20parent%3D%221%22%3E%3CmxGeometry%20relative%3D%221%22%20as%3D%22geometry%22%2F%3E%3C%2FmxCell%3E%3CmxCell%20id%3D%224%22%20value%3D%22Mulai%22%20style%3D%22ellipse%3BwhiteSpace%3Dwrap%3Bhtml%3D1%3Bsketch%3D1%3BhachureGap%3D4%3Bjiggle%3D2%3BcurveFitting%3D1%3BfontFamily%3DHelvetica%3BfontSize%3D24%3B%22%20vertex%3D%221%22%20parent%3D%221%22%3E%3CmxGeometry%20x%3D%22320%22%20y%3D%22145%22%20width%3D%22120%22%20height%3D%2280%22%20as%3D%22geometry%22%2F%3E%3C%2FmxCell%3E%3CmxCell%20id%3D%225%22%20value%3D%22%22%20style%3D%22edgeStyle%3Dnone%3Bsketch%3D1%3BhachureGap%3D4%3Bjiggle%3D2%3BcurveFitting%3D1%3Bhtml%3D1%3BfontFamily%3DHelvetica%3BfontSize%3D24%3B%22%20edge%3D%221%22%20source%3D%226%22%20target%3D%228%22%20parent%3D%221%22%3E%3CmxGeometry%20relative%3D%221%22%20as%3D%22geometry%22%2F%3E%3C%2FmxCell%3E%3CmxCell%20id%3D%226%22%20value%3D%22r%22%20style%3D%22shape%3Dprocess%3BwhiteSpace%3Dwrap%3Bhtml%3D1%3BbackgroundOutline%3D1%3Bsketch%3D1%3BhachureGap%3D4%3Bjiggle%3D2%3BcurveFitting%3D1%3BfontFamily%3DHelvetica%3BfontSize%3D24%3B%22%20vertex%3D%221%22%20parent%3D%221%22%3E%3CmxGeometry%20x%3D%22320%22%20y%3D%22273%22%20width%3D%22120%22%20height%3D%2260%22%20as%3D%22geometry%22%2F%3E%3C%2FmxCell%3E%3CmxCell%20id%3D%227%22%20value%3D%22%22%20style%3D%22edgeStyle%3Dnone%3Bsketch%3D1%3BhachureGap%3D4%3Bjiggle%3D2%3BcurveFitting%3D1%3Bhtml%3D1%3BfontFamily%3DHelvetica%3BfontSize%3D24%3B%22%20edge%3D%221%22%20source%3D%228%22%20target%3D%2210%22%20parent%3D%221%22%3E%3CmxGeometry%20relative%3D%221%22%20as%3D%22geometry%22%2F%3E%3C%2FmxCell%3E%3CmxCell%20id%3D%228%22%20value%3D%22phi%22%20style%3D%22shape%3Dprocess%3BwhiteSpace%3Dwrap%3Bhtml%3D1%3BbackgroundOutline%3D1%3Bsketch%3D1%3BhachureGap%3D4%3Bjiggle%3D2%3BcurveFitting%3D1%3BfontFamily%3DHelvetica%3BfontSize%3D24%3B%22%20vertex%3D%221%22%20parent%3D%221%22%3E%3CmxGeometry%20x%3D%22320%22%20y%3D%22395%22%20width%3D%22120%22%20height%3D%2260%22%20as%3D%22geometry%22%2F%3E%3C%2FmxCell%3E%3CmxCell%20id%3D%229%22%20value%3D%22%22%20style%3D%22edgeStyle%3Dnone%3Bsketch%3D1%3BhachureGap%3D4%3Bjiggle%3D2%3BcurveFitting%3D1%3Bhtml%3D1%3BfontFamily%3DHelvetica%3BfontSize%3D24%3B%22%20edge%3D%221%22%20source%3D%2210%22%20target%3D%2212%22%20parent%3D%221%22%3E%3CmxGeometry%20relative%3D%221%22%20as%3D%22geometry%22%2F%3E%3C%2FmxCell%3E%3CmxCell%20id%3D%2210%22%20value%3D%22luas%22%20style%3D%22shape%3Dprocess%3BwhiteSpace%3Dwrap%3Bhtml%3D1%3BbackgroundOutline%3D1%3Bsketch%3D1%3BhachureGap%3D4%3Bjiggle%3D2%3BcurveFitting%3D1%3BfontFamily%3DHelvetica%3BfontSize%3D24%3B%22%20vertex%3D%221%22%20parent%3D%221%22%3E%3CmxGeometry%20x%3D%22323%22%20y%3D%22508%22%20width%3D%22120%22%20height%3D%2260%22%20as%3D%22geometry%22%2F%3E%3C%2FmxCell%3E%3CmxCell%20id%3D%2211%22%20value%3D%22%22%20style%3D%22edgeStyle%3Dnone%3Bsketch%3D1%3BhachureGap%3D4%3Bjiggle%3D2%3BcurveFitting%3D1%3Bhtml%3D1%3BfontFamily%3DHelvetica%3BfontSize%3D24%3B%22%20edge%3D%221%22%20source%3D%2212%22%20target%3D%2214%22%20parent%3D%221%22%3E%3CmxGeometry%20relative%3D%221%22%20as%3D%22geometry%22%2F%3E%3C%2FmxCell%3E%3CmxCell%20id%3D%2212%22%20value%3D%22keliling%22%20style%3D%22shape%3Dprocess%3BwhiteSpace%3Dwrap%3Bhtml%3D1%3BbackgroundOutline%3D1%3Bsketch%3D1%3BhachureGap%3D4%3Bjiggle%3D2%3BcurveFitting%3D1%3BfontFamily%3DHelvetica%3BfontSize%3D24%3B%22%20vertex%3D%221%22%20parent%3D%221%22%3E%3CmxGeometry%20x%3D%22323%22%20y%3D%22621%22%20width%3D%22120%22%20height%3D%2260%22%20as%3D%22geometry%22%2F%3E%3C%2FmxCell%3E%3CmxCell%20id%3D%2213%22%20value%3D%22%22%20style%3D%22edgeStyle%3Dnone%3Bsketch%3D1%3BhachureGap%3D4%3Bjiggle%3D2%3BcurveFitting%3D1%3Bhtml%3D1%3BfontFamily%3DHelvetica%3BfontSize%3D24%3B%22%20edge%3D%221%22%20source%3D%2214%22%20target%3D%2217%22%20parent%3D%221%22%3E%3CmxGeometry%20relative%3D%221%22%20as%3D%22geometry%22%2F%3E%3C%2FmxCell%3E%3CmxCell%20id%3D%2214%22%20value%3D%22input%20r%22%20style%3D%22shape%3Dparallelogram%3Bperimeter%3DparallelogramPerimeter%3BwhiteSpace%3Dwrap%3Bhtml%3D1%3BfixedSize%3D1%3Bsketch%3D1%3BhachureGap%3D4%3Bjiggle%3D2%3BcurveFitting%3D1%3BfontFamily%3DHelvetica%3BfontSize%3D24%3B%22%20vertex%3D%221%22%20parent%3D%221%22%3E%3CmxGeometry%20x%3D%22305%22%20y%3D%22740%22%20width%3D%22156%22%20height%3D%2275%22%20as%3D%22geometry%22%2F%3E%3C%2FmxCell%3E%3CmxCell%20id%3D%2215%22%20value%3D%22Tidak%22%20style%3D%22edgeStyle%3Dnone%3Bsketch%3D1%3BhachureGap%3D4%3Bjiggle%3D2%3BcurveFitting%3D1%3Bhtml%3D1%3BexitX%3D0%3BexitY%3D0.5%3BexitDx%3D0%3BexitDy%3D0%3BentryX%3D1%3BentryY%3D0.5%3BentryDx%3D0%3BentryDy%3D0%3BfontFamily%3DHelvetica%3BfontSize%3D24%3B%22%20edge%3D%221%22%20source%3D%2217%22%20target%3D%2236%22%20parent%3D%221%22%3E%3CmxGeometry%20relative%3D%221%22%20as%3D%22geometry%22%3E%3CArray%20as%3D%22points%22%3E%3CmxPoint%20x%3D%22241%22%20y%3D%22939%22%2F%3E%3CmxPoint%20x%3D%22228%22%20y%3D%22931%22%2F%3E%3C%2FArray%3E%3C%2FmxGeometry%3E%3C%2FmxCell%3E%3CmxCell%20id%3D%2216%22%20value%3D%22Iya%22%20style%3D%22edgeStyle%3Dnone%3Bsketch%3D1%3BhachureGap%3D4%3Bjiggle%3D2%3BcurveFitting%3D1%3Bhtml%3D1%3BfontFamily%3DHelvetica%3BfontSize%3D24%3B%22%20edge%3D%221%22%20source%3D%2217%22%20target%3D%2220%22%20parent%3D%221%22%3E%3CmxGeometry%20relative%3D%221%22%20as%3D%22geometry%22%2F%3E%3C%2FmxCell%3E%3CmxCell%20id%3D%2217%22%20value%3D%22r%20%3D%3D%20num%20%3F%22%20style%3D%22rhombus%3BwhiteSpace%3Dwrap%3Bhtml%3D1%3Bsketch%3D1%3BhachureGap%3D4%3Bjiggle%3D2%3BcurveFitting%3D1%3BfontFamily%3DHelvetica%3BfontSize%3D24%3B%22%20vertex%3D%221%22%20parent%3D%221%22%3E%3CmxGeometry%20x%3D%22305%22%20y%3D%22874%22%20width%3D%22158.5%22%20height%3D%22130%22%20as%3D%22geometry%22%2F%3E%3C%2FmxCell%3E%3CmxCell%20id%3D%2218%22%20value%3D%22Iya%22%20style%3D%22edgeStyle%3Dnone%3Bsketch%3D1%3BhachureGap%3D4%3Bjiggle%3D2%3BcurveFitting%3D1%3Bhtml%3D1%3BfontFamily%3DHelvetica%3BfontSize%3D24%3B%22%20edge%3D%221%22%20source%3D%2220%22%20target%3D%2224%22%20parent%3D%221%22%3E%3CmxGeometry%20relative%3D%221%22%20as%3D%22geometry%22%2F%3E%3C%2FmxCell%3E%3CmxCell%20id%3D%2219%22%20value%3D%22Tidak%22%20style%3D%22edgeStyle%3Dnone%3Bsketch%3D1%3BhachureGap%3D4%3Bjiggle%3D2%3BcurveFitting%3D1%3Bhtml%3D1%3BfontFamily%3DHelvetica%3BfontSize%3D24%3B%22%20edge%3D%221%22%20source%3D%2220%22%20target%3D%2222%22%20parent%3D%221%22%3E%3CmxGeometry%20relative%3D%221%22%20as%3D%22geometry%22%2F%3E%3C%2FmxCell%3E%3CmxCell%20id%3D%2220%22%20value%3D%22r%20%25%207%20%3D%3D%200%20%3F%22%20style%3D%22rhombus%3BwhiteSpace%3Dwrap%3Bhtml%3D1%3Bsketch%3D1%3BhachureGap%3D4%3Bjiggle%3D2%3BcurveFitting%3D1%3BfontFamily%3DHelvetica%3BfontSize%3D24%3B%22%20vertex%3D%221%22%20parent%3D%221%22%3E%3CmxGeometry%20x%3D%22282%22%20y%3D%221106%22%20width%3D%22202%22%20height%3D%22130%22%20as%3D%22geometry%22%2F%3E%3C%2FmxCell%3E%3CmxCell%20id%3D%2221%22%20style%3D%22edgeStyle%3Dnone%3Bsketch%3D1%3BhachureGap%3D4%3Bjiggle%3D2%3BcurveFitting%3D1%3Bhtml%3D1%3BexitX%3D0.5%3BexitY%3D1%3BexitDx%3D0%3BexitDy%3D0%3BentryX%3D0%3BentryY%3D0.5%3BentryDx%3D0%3BentryDy%3D0%3BfontFamily%3DHelvetica%3BfontSize%3D24%3B%22%20edge%3D%221%22%20source%3D%2222%22%20target%3D%2226%22%20parent%3D%221%22%3E%3CmxGeometry%20relative%3D%221%22%20as%3D%22geometry%22%3E%3CArray%20as%3D%22points%22%3E%3CmxPoint%20x%3D%2298%22%20y%3D%221346%22%2F%3E%3C%2FArray%3E%3C%2FmxGeometry%3E%3C%2FmxCell%3E%3CmxCell%20id%3D%2222%22%20value%3D%22output%26lt%3Bbr%26gt%3Bphi%20%3D%203.14%22%20style%3D%22shape%3Dparallelogram%3Bperimeter%3DparallelogramPerimeter%3BwhiteSpace%3Dwrap%3Bhtml%3D1%3BfixedSize%3D1%3Bsketch%3D1%3BhachureGap%3D4%3Bjiggle%3D2%3BcurveFitting%3D1%3BfontFamily%3DHelvetica%3BfontSize%3D24%3B%22%20vertex%3D%221%22%20parent%3D%221%22%3E%3CmxGeometry%20x%3D%2211%22%20y%3D%221121.5%22%20width%3D%22174%22%20height%3D%2299%22%20as%3D%22geometry%22%2F%3E%3C%2FmxCell%3E%3CmxCell%20id%3D%2223%22%20style%3D%22edgeStyle%3Dnone%3Bsketch%3D1%3BhachureGap%3D4%3Bjiggle%3D2%3BcurveFitting%3D1%3Bhtml%3D1%3BentryX%3D1%3BentryY%3D0.5%3BentryDx%3D0%3BentryDy%3D0%3BfontFamily%3DHelvetica%3BfontSize%3D24%3B%22%20edge%3D%221%22%20source%3D%2224%22%20target%3D%2226%22%20parent%3D%221%22%3E%3CmxGeometry%20relative%3D%221%22%20as%3D%22geometry%22%3E%3CArray%20as%3D%22points%22%3E%3CmxPoint%20x%3D%22677%22%20y%3D%221346%22%2F%3E%3C%2FArray%3E%3C%2FmxGeometry%3E%3C%2FmxCell%3E%3CmxCell%20id%3D%2224%22%20value%3D%22output%26lt%3Bbr%26gt%3Bphi%20%3D%2022%2F7%22%20style%3D%22shape%3Dparallelogram%3Bperimeter%3DparallelogramPerimeter%3BwhiteSpace%3Dwrap%3Bhtml%3D1%3BfixedSize%3D1%3Bsketch%3D1%3BhachureGap%3D4%3Bjiggle%3D2%3BcurveFitting%3D1%3BfontFamily%3DHelvetica%3BfontSize%3D24%3B%22%20vertex%3D%221%22%20parent%3D%221%22%3E%3CmxGeometry%20x%3D%22586%22%20y%3D%221119%22%20width%3D%22174%22%20height%3D%2299%22%20as%3D%22geometry%22%2F%3E%3C%2FmxCell%3E%3CmxCell%20id%3D%2225%22%20value%3D%22%22%20style%3D%22edgeStyle%3Dnone%3Bsketch%3D1%3BhachureGap%3D4%3Bjiggle%3D2%3BcurveFitting%3D1%3Bhtml%3D1%3BfontFamily%3DHelvetica%3BfontSize%3D24%3B%22%20edge%3D%221%22%20source%3D%2226%22%20target%3D%2228%22%20parent%3D%221%22%3E%3CmxGeometry%20relative%3D%221%22%20as%3D%22geometry%22%2F%3E%3C%2FmxCell%3E%3CmxCell%20id%3D%2226%22%20value%3D%22luas%20%3D%20phi%20*%20r%5E2%22%20style%3D%22rounded%3D0%3BwhiteSpace%3Dwrap%3Bhtml%3D1%3Bsketch%3D1%3BhachureGap%3D4%3Bjiggle%3D2%3BcurveFitting%3D1%3BfontFamily%3DHelvetica%3BfontSize%3D24%3B%22%20vertex%3D%221%22%20parent%3D%221%22%3E%3CmxGeometry%20x%3D%22279.75%22%20y%3D%221316%22%20width%3D%22209%22%20height%3D%2259%22%20as%3D%22geometry%22%2F%3E%3C%2FmxCell%3E%3CmxCell%20id%3D%2227%22%20value%3D%22%22%20style%3D%22edgeStyle%3Dnone%3Bsketch%3D1%3BhachureGap%3D4%3Bjiggle%3D2%3BcurveFitting%3D1%3Bhtml%3D1%3BfontFamily%3DHelvetica%3BfontSize%3D24%3B%22%20edge%3D%221%22%20source%3D%2228%22%20target%3D%2232%22%20parent%3D%221%22%3E%3CmxGeometry%20relative%3D%221%22%20as%3D%22geometry%22%2F%3E%3C%2FmxCell%3E%3CmxCell%20id%3D%2228%22%20value%3D%22keliling%20%3D%202%20*%20phi%20*%20r%22%20style%3D%22rounded%3D0%3BwhiteSpace%3Dwrap%3Bhtml%3D1%3Bsketch%3D1%3BhachureGap%3D4%3Bjiggle%3D2%3BcurveFitting%3D1%3BfontFamily%3DHelvetica%3BfontSize%3D24%3B%22%20vertex%3D%221%22%20parent%3D%221%22%3E%3CmxGeometry%20x%3D%22279.75%22%20y%3D%221451%22%20width%3D%22209%22%20height%3D%2259%22%20as%3D%22geometry%22%2F%3E%3C%2FmxCell%3E%3CmxCell%20id%3D%2229%22%20value%3D%22Selesai%22%20style%3D%22ellipse%3BwhiteSpace%3Dwrap%3Bhtml%3D1%3Bsketch%3D1%3BhachureGap%3D4%3Bjiggle%3D2%3BcurveFitting%3D1%3BfontFamily%3DHelvetica%3BfontSize%3D24%3B%22%20vertex%3D%221%22%20parent%3D%221%22%3E%3CmxGeometry%20x%3D%22323%22%20y%3D%221911%22%20width%3D%22120%22%20height%3D%2280%22%20as%3D%22geometry%22%2F%3E%3C%2FmxCell%3E%3CmxCell%20id%3D%2230%22%20value%3D%22%26lt%3Bb%26gt%3BAlur%20program%201%20%3A%26lt%3B%2Fb%26gt%3B%22%20style%3D%22text%3Bhtml%3D1%3Balign%3Dcenter%3BverticalAlign%3Dmiddle%3Bresizable%3D0%3Bpoints%3D%5B%5D%3Bautosize%3D1%3BstrokeColor%3Dnone%3BfillColor%3Dnone%3BfontSize%3D24%3BfontFamily%3DHelvetica%3Bsketch%3D1%3BhachureGap%3D4%3Bjiggle%3D2%3BcurveFitting%3D1%3BfontSource%3Dhttps%253A%252F%252Ffonts.googleapis.com%252Fcss%253Ffamily%253DArchitects%252BDaughter%3B%22%20vertex%3D%221%22%20parent%3D%221%22%3E%3CmxGeometry%20x%3D%22275%22%20y%3D%2290%22%20width%3D%22205%22%20height%3D%2241%22%20as%3D%22geometry%22%2F%3E%3C%2FmxCell%3E%3CmxCell%20id%3D%2231%22%20value%3D%22%22%20style%3D%22edgeStyle%3Dnone%3Bsketch%3D1%3BhachureGap%3D4%3Bjiggle%3D2%3BcurveFitting%3D1%3Bhtml%3D1%3BfontFamily%3DHelvetica%3BfontSize%3D24%3B%22%20edge%3D%221%22%20source%3D%2232%22%20target%3D%2234%22%20parent%3D%221%22%3E%3CmxGeometry%20relative%3D%221%22%20as%3D%22geometry%22%2F%3E%3C%2FmxCell%3E%3CmxCell%20id%3D%2232%22%20value%3D%22output%26lt%3Bbr%26gt%3Bcetak%20luas%22%20style%3D%22shape%3Dparallelogram%3Bperimeter%3DparallelogramPerimeter%3BwhiteSpace%3Dwrap%3Bhtml%3D1%3BfixedSize%3D1%3Bsketch%3D1%3BhachureGap%3D4%3Bjiggle%3D2%3BcurveFitting%3D1%3BfontFamily%3DHelvetica%3BfontSize%3D24%3B%22%20vertex%3D%221%22%20parent%3D%221%22%3E%3CmxGeometry%20x%3D%22277.5%22%20y%3D%221587%22%20width%3D%22202.5%22%20height%3D%2282%22%20as%3D%22geometry%22%2F%3E%3C%2FmxCell%3E%3CmxCell%20id%3D%2233%22%20value%3D%22%22%20style%3D%22edgeStyle%3Dnone%3Bsketch%3D1%3BhachureGap%3D4%3Bjiggle%3D2%3BcurveFitting%3D1%3Bhtml%3D1%3BfontFamily%3DHelvetica%3BfontSize%3D24%3B%22%20edge%3D%221%22%20source%3D%2234%22%20target%3D%2229%22%20parent%3D%221%22%3E%3CmxGeometry%20relative%3D%221%22%20as%3D%22geometry%22%2F%3E%3C%2FmxCell%3E%3CmxCell%20id%3D%2234%22%20value%3D%22output%26lt%3Bbr%26gt%3Bcetak%20keliling%22%20style%3D%22shape%3Dparallelogram%3Bperimeter%3DparallelogramPerimeter%3BwhiteSpace%3Dwrap%3Bhtml%3D1%3BfixedSize%3D1%3Bsketch%3D1%3BhachureGap%3D4%3Bjiggle%3D2%3BcurveFitting%3D1%3BfontFamily%3DHelvetica%3BfontSize%3D24%3B%22%20vertex%3D%221%22%20parent%3D%221%22%3E%3CmxGeometry%20x%3D%22278.75%22%20y%3D%221735%22%20width%3D%22202.5%22%20height%3D%2282%22%20as%3D%22geometry%22%2F%3E%3C%2FmxCell%3E%3CmxCell%20id%3D%2235%22%20style%3D%22edgeStyle%3Dnone%3Bsketch%3D1%3BhachureGap%3D4%3Bjiggle%3D2%3BcurveFitting%3D1%3Bhtml%3D1%3BentryX%3D0%3BentryY%3D0.5%3BentryDx%3D0%3BentryDy%3D0%3BfontFamily%3DHelvetica%3BfontSize%3D24%3B%22%20edge%3D%221%22%20source%3D%2236%22%20target%3D%2214%22%20parent%3D%221%22%3E%3CmxGeometry%20relative%3D%221%22%20as%3D%22geometry%22%3E%3CArray%20as%3D%22points%22%3E%3CmxPoint%20x%3D%22-47%22%20y%3D%22778%22%2F%3E%3C%2FArray%3E%3C%2FmxGeometry%3E%3C%2FmxCell%3E%3CmxCell%20id%3D%2236%22%20value%3D%22output%20error%20handling%26lt%3Bbr%26gt%3B%26quot%3Bmasukan%20nilai%20angka%20yang%20valid%20!%20%26quot%3B%22%20style%3D%22shape%3Dparallelogram%3Bperimeter%3DparallelogramPerimeter%3BwhiteSpace%3Dwrap%3Bhtml%3D1%3BfixedSize%3D1%3Bsketch%3D1%3BhachureGap%3D4%3Bjiggle%3D2%3BcurveFitting%3D1%3BfontFamily%3DHelvetica%3BfontSize%3D24%3B%22%20vertex%3D%221%22%20parent%3D%221%22%3E%3CmxGeometry%20x%3D%22-248%22%20y%3D%22897%22%20width%3D%22403%22%20height%3D%2284%22%20as%3D%22geometry%22%2F%3E%3C%2FmxCell%3E%3C%2Froot%3E%3C%2FmxGraphModel%3E&lt;/span&gt;&lt;span style=&quot;color: rgba(0, 0, 0, 0); font-family: monospace; font-size: 0px; text-align: start;&quot;&gt;%3CmxGraphModel%3E%3Croot%3E%3CmxCell%20id%3D%220%22%2F%3E%3CmxCell%20id%3D%221%22%20parent%3D%220%22%2F%3E%3CmxCell%20id%3D%222%22%20value%3D%22%26lt%3Bb%26gt%3B%26lt%3Bfont%20style%3D%26quot%3Bfont-size%3A%2024px%3B%26quot%3B%26gt%3BAlgoritma%20Flowchart%20menghitung%20luas%20dan%20keliling%20lingkaran%20%3A%26lt%3B%2Ffont%26gt%3B%26lt%3B%2Fb%26gt%3B%22%20style%3D%22text%3Bhtml%3D1%3Balign%3Dcenter%3BverticalAlign%3Dmiddle%3Bresizable%3D0%3Bpoints%3D%5B%5D%3Bautosize%3D1%3BstrokeColor%3Dnone%3BfillColor%3Dnone%3BfontSize%3D20%3BfontFamily%3DHelvetica%3Bsketch%3D1%3BhachureGap%3D4%3Bjiggle%3D2%3BcurveFitting%3D1%3BfontSource%3Dhttps%253A%252F%252Ffonts.googleapis.com%252Fcss%253Ffamily%253DArchitects%252BDaughter%3B%22%20vertex%3D%221%22%20parent%3D%221%22%3E%3CmxGeometry%20x%3D%2270%22%20y%3D%2225%22%20width%3D%22715%22%20height%3D%2241%22%20as%3D%22geometry%22%2F%3E%3C%2FmxCell%3E%3CmxCell%20id%3D%223%22%20value%3D%22%22%20style%3D%22edgeStyle%3Dnone%3Bsketch%3D1%3BhachureGap%3D4%3Bjiggle%3D2%3BcurveFitting%3D1%3Bhtml%3D1%3BfontFamily%3DHelvetica%3BfontSize%3D24%3B%22%20edge%3D%221%22%20source%3D%224%22%20target%3D%226%22%20parent%3D%221%22%3E%3CmxGeometry%20relative%3D%221%22%20as%3D%22geometry%22%2F%3E%3C%2FmxCell%3E%3CmxCell%20id%3D%224%22%20value%3D%22Mulai%22%20style%3D%22ellipse%3BwhiteSpace%3Dwrap%3Bhtml%3D1%3Bsketch%3D1%3BhachureGap%3D4%3Bjiggle%3D2%3BcurveFitting%3D1%3BfontFamily%3DHelvetica%3BfontSize%3D24%3B%22%20vertex%3D%221%22%20parent%3D%221%22%3E%3CmxGeometry%20x%3D%22320%22%20y%3D%22145%22%20width%3D%22120%22%20height%3D%2280%22%20as%3D%22geometry%22%2F%3E%3C%2FmxCell%3E%3CmxCell%20id%3D%225%22%20value%3D%22%22%20style%3D%22edgeStyle%3Dnone%3Bsketch%3D1%3BhachureGap%3D4%3Bjiggle%3D2%3BcurveFitting%3D1%3Bhtml%3D1%3BfontFamily%3DHelvetica%3BfontSize%3D24%3B%22%20edge%3D%221%22%20source%3D%226%22%20target%3D%228%22%20parent%3D%221%22%3E%3CmxGeometry%20relative%3D%221%22%20as%3D%22geometry%22%2F%3E%3C%2FmxCell%3E%3CmxCell%20id%3D%226%22%20value%3D%22r%22%20style%3D%22shape%3Dprocess%3BwhiteSpace%3Dwrap%3Bhtml%3D1%3BbackgroundOutline%3D1%3Bsketch%3D1%3BhachureGap%3D4%3Bjiggle%3D2%3BcurveFitting%3D1%3BfontFamily%3DHelvetica%3BfontSize%3D24%3B%22%20vertex%3D%221%22%20parent%3D%221%22%3E%3CmxGeometry%20x%3D%22320%22%20y%3D%22273%22%20width%3D%22120%22%20height%3D%2260%22%20as%3D%22geometry%22%2F%3E%3C%2FmxCell%3E%3CmxCell%20id%3D%227%22%20value%3D%22%22%20style%3D%22edgeStyle%3Dnone%3Bsketch%3D1%3BhachureGap%3D4%3Bjiggle%3D2%3BcurveFitting%3D1%3Bhtml%3D1%3BfontFamily%3DHelvetica%3BfontSize%3D24%3B%22%20edge%3D%221%22%20source%3D%228%22%20target%3D%2210%22%20parent%3D%221%22%3E%3CmxGeometry%20relative%3D%221%22%20as%3D%22geometry%22%2F%3E%3C%2FmxCell%3E%3CmxCell%20id%3D%228%22%20value%3D%22phi%22%20style%3D%22shape%3Dprocess%3BwhiteSpace%3Dwrap%3Bhtml%3D1%3BbackgroundOutline%3D1%3Bsketch%3D1%3BhachureGap%3D4%3Bjiggle%3D2%3BcurveFitting%3D1%3BfontFamily%3DHelvetica%3BfontSize%3D24%3B%22%20vertex%3D%221%22%20parent%3D%221%22%3E%3CmxGeometry%20x%3D%22320%22%20y%3D%22395%22%20width%3D%22120%22%20height%3D%2260%22%20as%3D%22geometry%22%2F%3E%3C%2FmxCell%3E%3CmxCell%20id%3D%229%22%20value%3D%22%22%20style%3D%22edgeStyle%3Dnone%3Bsketch%3D1%3BhachureGap%3D4%3Bjiggle%3D2%3BcurveFitting%3D1%3Bhtml%3D1%3BfontFamily%3DHelvetica%3BfontSize%3D24%3B%22%20edge%3D%221%22%20source%3D%2210%22%20target%3D%2212%22%20parent%3D%221%22%3E%3CmxGeometry%20relative%3D%221%22%20as%3D%22geometry%22%2F%3E%3C%2FmxCell%3E%3CmxCell%20id%3D%2210%22%20value%3D%22luas%22%20style%3D%22shape%3Dprocess%3BwhiteSpace%3Dwrap%3Bhtml%3D1%3BbackgroundOutline%3D1%3Bsketch%3D1%3BhachureGap%3D4%3Bjiggle%3D2%3BcurveFitting%3D1%3BfontFamily%3DHelvetica%3BfontSize%3D24%3B%22%20vertex%3D%221%22%20parent%3D%221%22%3E%3CmxGeometry%20x%3D%22323%22%20y%3D%22508%22%20width%3D%22120%22%20height%3D%2260%22%20as%3D%22geometry%22%2F%3E%3C%2FmxCell%3E%3CmxCell%20id%3D%2211%22%20value%3D%22%22%20style%3D%22edgeStyle%3Dnone%3Bsketch%3D1%3BhachureGap%3D4%3Bjiggle%3D2%3BcurveFitting%3D1%3Bhtml%3D1%3BfontFamily%3DHelvetica%3BfontSize%3D24%3B%22%20edge%3D%221%22%20source%3D%2212%22%20target%3D%2214%22%20parent%3D%221%22%3E%3CmxGeometry%20relative%3D%221%22%20as%3D%22geometry%22%2F%3E%3C%2FmxCell%3E%3CmxCell%20id%3D%2212%22%20value%3D%22keliling%22%20style%3D%22shape%3Dprocess%3BwhiteSpace%3Dwrap%3Bhtml%3D1%3BbackgroundOutline%3D1%3Bsketch%3D1%3BhachureGap%3D4%3Bjiggle%3D2%3BcurveFitting%3D1%3BfontFamily%3DHelvetica%3BfontSize%3D24%3B%22%20vertex%3D%221%22%20parent%3D%221%22%3E%3CmxGeometry%20x%3D%22323%22%20y%3D%22621%22%20width%3D%22120%22%20height%3D%2260%22%20as%3D%22geometry%22%2F%3E%3C%2FmxCell%3E%3CmxCell%20id%3D%2213%22%20value%3D%22%22%20style%3D%22edgeStyle%3Dnone%3Bsketch%3D1%3BhachureGap%3D4%3Bjiggle%3D2%3BcurveFitting%3D1%3Bhtml%3D1%3BfontFamily%3DHelvetica%3BfontSize%3D24%3B%22%20edge%3D%221%22%20source%3D%2214%22%20target%3D%2217%22%20parent%3D%221%22%3E%3CmxGeometry%20relative%3D%221%22%20as%3D%22geometry%22%2F%3E%3C%2FmxCell%3E%3CmxCell%20id%3D%2214%22%20value%3D%22input%20r%22%20style%3D%22shape%3Dparallelogram%3Bperimeter%3DparallelogramPerimeter%3BwhiteSpace%3Dwrap%3Bhtml%3D1%3BfixedSize%3D1%3Bsketch%3D1%3BhachureGap%3D4%3Bjiggle%3D2%3BcurveFitting%3D1%3BfontFamily%3DHelvetica%3BfontSize%3D24%3B%22%20vertex%3D%221%22%20parent%3D%221%22%3E%3CmxGeometry%20x%3D%22305%22%20y%3D%22740%22%20width%3D%22156%22%20height%3D%2275%22%20as%3D%22geometry%22%2F%3E%3C%2FmxCell%3E%3CmxCell%20id%3D%2215%22%20value%3D%22Tidak%22%20style%3D%22edgeStyle%3Dnone%3Bsketch%3D1%3BhachureGap%3D4%3Bjiggle%3D2%3BcurveFitting%3D1%3Bhtml%3D1%3BexitX%3D0%3BexitY%3D0.5%3BexitDx%3D0%3BexitDy%3D0%3BentryX%3D1%3BentryY%3D0.5%3BentryDx%3D0%3BentryDy%3D0%3BfontFamily%3DHelvetica%3BfontSize%3D24%3B%22%20edge%3D%221%22%20source%3D%2217%22%20target%3D%2236%22%20parent%3D%221%22%3E%3CmxGeometry%20relative%3D%221%22%20as%3D%22geometry%22%3E%3CArray%20as%3D%22points%22%3E%3CmxPoint%20x%3D%22241%22%20y%3D%22939%22%2F%3E%3CmxPoint%20x%3D%22228%22%20y%3D%22931%22%2F%3E%3C%2FArray%3E%3C%2FmxGeometry%3E%3C%2FmxCell%3E%3CmxCell%20id%3D%2216%22%20value%3D%22Iya%22%20style%3D%22edgeStyle%3Dnone%3Bsketch%3D1%3BhachureGap%3D4%3Bjiggle%3D2%3BcurveFitting%3D1%3Bhtml%3D1%3BfontFamily%3DHelvetica%3BfontSize%3D24%3B%22%20edge%3D%221%22%20source%3D%2217%22%20target%3D%2220%22%20parent%3D%221%22%3E%3CmxGeometry%20relative%3D%221%22%20as%3D%22geometry%22%2F%3E%3C%2FmxCell%3E%3CmxCell%20id%3D%2217%22%20value%3D%22r%20%3D%3D%20num%20%3F%22%20style%3D%22rhombus%3BwhiteSpace%3Dwrap%3Bhtml%3D1%3Bsketch%3D1%3BhachureGap%3D4%3Bjiggle%3D2%3BcurveFitting%3D1%3BfontFamily%3DHelvetica%3BfontSize%3D24%3B%22%20vertex%3D%221%22%20parent%3D%221%22%3E%3CmxGeometry%20x%3D%22305%22%20y%3D%22874%22%20width%3D%22158.5%22%20height%3D%22130%22%20as%3D%22geometry%22%2F%3E%3C%2FmxCell%3E%3CmxCell%20id%3D%2218%22%20value%3D%22Iya%22%20style%3D%22edgeStyle%3Dnone%3Bsketch%3D1%3BhachureGap%3D4%3Bjiggle%3D2%3BcurveFitting%3D1%3Bhtml%3D1%3BfontFamily%3DHelvetica%3BfontSize%3D24%3B%22%20edge%3D%221%22%20source%3D%2220%22%20target%3D%2224%22%20parent%3D%221%22%3E%3CmxGeometry%20relative%3D%221%22%20as%3D%22geometry%22%2F%3E%3C%2FmxCell%3E%3CmxCell%20id%3D%2219%22%20value%3D%22Tidak%22%20style%3D%22edgeStyle%3Dnone%3Bsketch%3D1%3BhachureGap%3D4%3Bjiggle%3D2%3BcurveFitting%3D1%3Bhtml%3D1%3BfontFamily%3DHelvetica%3BfontSize%3D24%3B%22%20edge%3D%221%22%20source%3D%2220%22%20target%3D%2222%22%20parent%3D%221%22%3E%3CmxGeometry%20relative%3D%221%22%20as%3D%22geometry%22%2F%3E%3C%2FmxCell%3E%3CmxCell%20id%3D%2220%22%20value%3D%22r%20%25%207%20%3D%3D%200%20%3F%22%20style%3D%22rhombus%3BwhiteSpace%3Dwrap%3Bhtml%3D1%3Bsketch%3D1%3BhachureGap%3D4%3Bjiggle%3D2%3BcurveFitting%3D1%3BfontFamily%3DHelvetica%3BfontSize%3D24%3B%22%20vertex%3D%221%22%20parent%3D%221%22%3E%3CmxGeometry%20x%3D%22282%22%20y%3D%221106%22%20width%3D%22202%22%20height%3D%22130%22%20as%3D%22geometry%22%2F%3E%3C%2FmxCell%3E%3CmxCell%20id%3D%2221%22%20style%3D%22edgeStyle%3Dnone%3Bsketch%3D1%3BhachureGap%3D4%3Bjiggle%3D2%3BcurveFitting%3D1%3Bhtml%3D1%3BexitX%3D0.5%3BexitY%3D1%3BexitDx%3D0%3BexitDy%3D0%3BentryX%3D0%3BentryY%3D0.5%3BentryDx%3D0%3BentryDy%3D0%3BfontFamily%3DHelvetica%3BfontSize%3D24%3B%22%20edge%3D%221%22%20source%3D%2222%22%20target%3D%2226%22%20parent%3D%221%22%3E%3CmxGeometry%20relative%3D%221%22%20as%3D%22geometry%22%3E%3CArray%20as%3D%22points%22%3E%3CmxPoint%20x%3D%2298%22%20y%3D%221346%22%2F%3E%3C%2FArray%3E%3C%2FmxGeometry%3E%3C%2FmxCell%3E%3CmxCell%20id%3D%2222%22%20value%3D%22output%26lt%3Bbr%26gt%3Bphi%20%3D%203.14%22%20style%3D%22shape%3Dparallelogram%3Bperimeter%3DparallelogramPerimeter%3BwhiteSpace%3Dwrap%3Bhtml%3D1%3BfixedSize%3D1%3Bsketch%3D1%3BhachureGap%3D4%3Bjiggle%3D2%3BcurveFitting%3D1%3BfontFamily%3DHelvetica%3BfontSize%3D24%3B%22%20vertex%3D%221%22%20parent%3D%221%22%3E%3CmxGeometry%20x%3D%2211%22%20y%3D%221121.5%22%20width%3D%22174%22%20height%3D%2299%22%20as%3D%22geometry%22%2F%3E%3C%2FmxCell%3E%3CmxCell%20id%3D%2223%22%20style%3D%22edgeStyle%3Dnone%3Bsketch%3D1%3BhachureGap%3D4%3Bjiggle%3D2%3BcurveFitting%3D1%3Bhtml%3D1%3BentryX%3D1%3BentryY%3D0.5%3BentryDx%3D0%3BentryDy%3D0%3BfontFamily%3DHelvetica%3BfontSize%3D24%3B%22%20edge%3D%221%22%20source%3D%2224%22%20target%3D%2226%22%20parent%3D%221%22%3E%3CmxGeometry%20relative%3D%221%22%20as%3D%22geometry%22%3E%3CArray%20as%3D%22points%22%3E%3CmxPoint%20x%3D%22677%22%20y%3D%221346%22%2F%3E%3C%2FArray%3E%3C%2FmxGeometry%3E%3C%2FmxCell%3E%3CmxCell%20id%3D%2224%22%20value%3D%22output%26lt%3Bbr%26gt%3Bphi%20%3D%2022%2F7%22%20style%3D%22shape%3Dparallelogram%3Bperimeter%3DparallelogramPerimeter%3BwhiteSpace%3Dwrap%3Bhtml%3D1%3BfixedSize%3D1%3Bsketch%3D1%3BhachureGap%3D4%3Bjiggle%3D2%3BcurveFitting%3D1%3BfontFamily%3DHelvetica%3BfontSize%3D24%3B%22%20vertex%3D%221%22%20parent%3D%221%22%3E%3CmxGeometry%20x%3D%22586%22%20y%3D%221119%22%20width%3D%22174%22%20height%3D%2299%22%20as%3D%22geometry%22%2F%3E%3C%2FmxCell%3E%3CmxCell%20id%3D%2225%22%20value%3D%22%22%20style%3D%22edgeStyle%3Dnone%3Bsketch%3D1%3BhachureGap%3D4%3Bjiggle%3D2%3BcurveFitting%3D1%3Bhtml%3D1%3BfontFamily%3DHelvetica%3BfontSize%3D24%3B%22%20edge%3D%221%22%20source%3D%2226%22%20target%3D%2228%22%20parent%3D%221%22%3E%3CmxGeometry%20relative%3D%221%22%20as%3D%22geometry%22%2F%3E%3C%2FmxCell%3E%3CmxCell%20id%3D%2226%22%20value%3D%22luas%20%3D%20phi%20*%20r%5E2%22%20style%3D%22rounded%3D0%3BwhiteSpace%3Dwrap%3Bhtml%3D1%3Bsketch%3D1%3BhachureGap%3D4%3Bjiggle%3D2%3BcurveFitting%3D1%3BfontFamily%3DHelvetica%3BfontSize%3D24%3B%22%20vertex%3D%221%22%20parent%3D%221%22%3E%3CmxGeometry%20x%3D%22279.75%22%20y%3D%221316%22%20width%3D%22209%22%20height%3D%2259%22%20as%3D%22geometry%22%2F%3E%3C%2FmxCell%3E%3CmxCell%20id%3D%2227%22%20value%3D%22%22%20style%3D%22edgeStyle%3Dnone%3Bsketch%3D1%3BhachureGap%3D4%3Bjiggle%3D2%3BcurveFitting%3D1%3Bhtml%3D1%3BfontFamily%3DHelvetica%3BfontSize%3D24%3B%22%20edge%3D%221%22%20source%3D%2228%22%20target%3D%2232%22%20parent%3D%221%22%3E%3CmxGeometry%20relative%3D%221%22%20as%3D%22geometry%22%2F%3E%3C%2FmxCell%3E%3CmxCell%20id%3D%2228%22%20value%3D%22keliling%20%3D%202%20*%20phi%20*%20r%22%20style%3D%22rounded%3D0%3BwhiteSpace%3Dwrap%3Bhtml%3D1%3Bsketch%3D1%3BhachureGap%3D4%3Bjiggle%3D2%3BcurveFitting%3D1%3BfontFamily%3DHelvetica%3BfontSize%3D24%3B%22%20vertex%3D%221%22%20parent%3D%221%22%3E%3CmxGeometry%20x%3D%22279.75%22%20y%3D%221451%22%20width%3D%22209%22%20height%3D%2259%22%20as%3D%22geometry%22%2F%3E%3C%2FmxCell%3E%3CmxCell%20id%3D%2229%22%20value%3D%22Selesai%22%20style%3D%22ellipse%3BwhiteSpace%3Dwrap%3Bhtml%3D1%3Bsketch%3D1%3BhachureGap%3D4%3Bjiggle%3D2%3BcurveFitting%3D1%3BfontFamily%3DHelvetica%3BfontSize%3D24%3B%22%20vertex%3D%221%22%20parent%3D%221%22%3E%3CmxGeometry%20x%3D%22323%22%20y%3D%221911%22%20width%3D%22120%22%20height%3D%2280%22%20as%3D%22geometry%22%2F%3E%3C%2FmxCell%3E%3CmxCell%20id%3D%2230%22%20value%3D%22%26lt%3Bb%26gt%3BAlur%20program%201%20%3A%26lt%3B%2Fb%26gt%3B%22%20style%3D%22text%3Bhtml%3D1%3Balign%3Dcenter%3BverticalAlign%3Dmiddle%3Bresizable%3D0%3Bpoints%3D%5B%5D%3Bautosize%3D1%3BstrokeColor%3Dnone%3BfillColor%3Dnone%3BfontSize%3D24%3BfontFamily%3DHelvetica%3Bsketch%3D1%3BhachureGap%3D4%3Bjiggle%3D2%3BcurveFitting%3D1%3BfontSource%3Dhttps%253A%252F%252Ffonts.googleapis.com%252Fcss%253Ffamily%253DArchitects%252BDaughter%3B%22%20vertex%3D%221%22%20parent%3D%221%22%3E%3CmxGeometry%20x%3D%22275%22%20y%3D%2290%22%20width%3D%22205%22%20height%3D%2241%22%20as%3D%22geometry%22%2F%3E%3C%2FmxCell%3E%3CmxCell%20id%3D%2231%22%20value%3D%22%22%20style%3D%22edgeStyle%3Dnone%3Bsketch%3D1%3BhachureGap%3D4%3Bjiggle%3D2%3BcurveFitting%3D1%3Bhtml%3D1%3BfontFamily%3DHelvetica%3BfontSize%3D24%3B%22%20edge%3D%221%22%20source%3D%2232%22%20target%3D%2234%22%20parent%3D%221%22%3E%3CmxGeometry%20relative%3D%221%22%20as%3D%22geometry%22%2F%3E%3C%2FmxCell%3E%3CmxCell%20id%3D%2232%22%20value%3D%22output%26lt%3Bbr%26gt%3Bcetak%20luas%22%20style%3D%22shape%3Dparallelogram%3Bperimeter%3DparallelogramPerimeter%3BwhiteSpace%3Dwrap%3Bhtml%3D1%3BfixedSize%3D1%3Bsketch%3D1%3BhachureGap%3D4%3Bjiggle%3D2%3BcurveFitting%3D1%3BfontFamily%3DHelvetica%3BfontSize%3D24%3B%22%20vertex%3D%221%22%20parent%3D%221%22%3E%3CmxGeometry%20x%3D%22277.5%22%20y%3D%221587%22%20width%3D%22202.5%22%20height%3D%2282%22%20as%3D%22geometry%22%2F%3E%3C%2FmxCell%3E%3CmxCell%20id%3D%2233%22%20value%3D%22%22%20style%3D%22edgeStyle%3Dnone%3Bsketch%3D1%3BhachureGap%3D4%3Bjiggle%3D2%3BcurveFitting%3D1%3Bhtml%3D1%3BfontFamily%3DHelvetica%3BfontSize%3D24%3B%22%20edge%3D%221%22%20source%3D%2234%22%20target%3D%2229%22%20parent%3D%221%22%3E%3CmxGeometry%20relative%3D%221%22%20as%3D%22geometry%22%2F%3E%3C%2FmxCell%3E%3CmxCell%20id%3D%2234%22%20value%3D%22output%26lt%3Bbr%26gt%3Bcetak%20keliling%22%20style%3D%22shape%3Dparallelogram%3Bperimeter%3DparallelogramPerimeter%3BwhiteSpace%3Dwrap%3Bhtml%3D1%3BfixedSize%3D1%3Bsketch%3D1%3BhachureGap%3D4%3Bjiggle%3D2%3BcurveFitting%3D1%3BfontFamily%3DHelvetica%3BfontSize%3D24%3B%22%20vertex%3D%221%22%20parent%3D%221%22%3E%3CmxGeometry%20x%3D%22278.75%22%20y%3D%221735%22%20width%3D%22202.5%22%20height%3D%2282%22%20as%3D%22geometry%22%2F%3E%3C%2FmxCell%3E%3CmxCell%20id%3D%2235%22%20style%3D%22edgeStyle%3Dnone%3Bsketch%3D1%3BhachureGap%3D4%3Bjiggle%3D2%3BcurveFitting%3D1%3Bhtml%3D1%3BentryX%3D0%3BentryY%3D0.5%3BentryDx%3D0%3BentryDy%3D0%3BfontFamily%3DHelvetica%3BfontSize%3D24%3B%22%20edge%3D%221%22%20source%3D%2236%22%20target%3D%2214%22%20parent%3D%221%22%3E%3CmxGeometry%20relative%3D%221%22%20as%3D%22geometry%22%3E%3CArray%20as%3D%22points%22%3E%3CmxPoint%20x%3D%22-47%22%20y%3D%22778%22%2F%3E%3C%2FArray%3E%3C%2FmxGeometry%3E%3C%2FmxCell%3E%3CmxCell%20id%3D%2236%22%20value%3D%22output%20error%20handling%26lt%3Bbr%26gt%3B%26quot%3Bmasukan%20nilai%20angka%20yang%20valid%20!%20%26quot%3B%22%20style%3D%22shape%3Dparallelogram%3Bperimeter%3DparallelogramPerimeter%3BwhiteSpace%3Dwrap%3Bhtml%3D1%3BfixedSize%3D1%3Bsketch%3D1%3BhachureGap%3D4%3Bjiggle%3D2%3BcurveFitting%3D1%3BfontFamily%3DHelvetica%3BfontSize%3D24%3B%22%20vertex%3D%221%22%20parent%3D%221%22%3E%3CmxGeometry%20x%3D%22-248%22%20y%3D%22897%22%20width%3D%22403%22%20height%3D%2284%22%20as%3D%22geometry%22%2F%3E%3C%2FmxCell%3E%3C%2Froot%3E%3C%2FmxGraphModel%3E&lt;/span&gt;" style="text;html=1;align=center;verticalAlign=middle;resizable=0;points=[];autosize=1;strokeColor=none;fillColor=none;fontSize=20;fontFamily=Architects Daughter;sketch=1;hachureGap=4;jiggle=2;curveFitting=1;fontSource=https%3A%2F%2Ffonts.googleapis.com%2Fcss%3Ffamily%3DArchitects%2BDaughter;" parent="7" vertex="1">
                    <mxGeometry x="81.14754098360656" y="44.77110885045778" width="18" height="36" as="geometry"/>
                </mxCell>
                <mxCell id="j4v7v9u1vHbKPHmvHOut-4" value="&lt;b&gt;&lt;font style=&quot;font-size: 24px;&quot;&gt;Algoritma Flowchart menghitung luas dan keliling lingkaran :&lt;/font&gt;&lt;/b&gt;" style="text;html=1;align=center;verticalAlign=middle;resizable=0;points=[];autosize=1;strokeColor=none;fillColor=none;fontSize=20;fontFamily=Helvetica;sketch=1;hachureGap=4;jiggle=2;curveFitting=1;fontSource=https%3A%2F%2Ffonts.googleapis.com%2Fcss%3Ffamily%3DArchitects%2BDaughter;" parent="7" vertex="1">
                    <mxGeometry x="71.00442622950823" y="19" width="715" height="41" as="geometry"/>
                </mxCell>
                <mxCell id="9" value="" style="edgeStyle=none;sketch=1;hachureGap=4;jiggle=2;curveFitting=1;html=1;fontFamily=Architects Daughter;fontSource=https%3A%2F%2Ffonts.googleapis.com%2Fcss%3Ffamily%3DArchitects%2BDaughter;fontSize=16;" parent="7" source="j4v7v9u1vHbKPHmvHOut-6" target="j4v7v9u1vHbKPHmvHOut-14" edge="1">
                    <mxGeometry relative="1" as="geometry"/>
                </mxCell>
                <mxCell id="j4v7v9u1vHbKPHmvHOut-6" value="MULAI" style="ellipse;whiteSpace=wrap;html=1;sketch=1;hachureGap=4;jiggle=2;curveFitting=1;fontFamily=Helvetica;fontSize=24;" parent="7" vertex="1">
                    <mxGeometry x="495.2424590163934" y="98.00135300101729" width="98.36065573770492" height="66.32756866734488" as="geometry"/>
                </mxCell>
                <mxCell id="j4v7v9u1vHbKPHmvHOut-14" value="phi, luas, keliling" style="shape=process;whiteSpace=wrap;html=1;backgroundOutline=1;sketch=1;hachureGap=4;jiggle=2;curveFitting=1;fontFamily=Helvetica;fontSize=24;" parent="7" vertex="1">
                    <mxGeometry x="420.91999999999996" y="224" width="252.13" height="78" as="geometry"/>
                </mxCell>
                <mxCell id="j4v7v9u1vHbKPHmvHOut-16" value="INPUT r" style="shape=parallelogram;perimeter=parallelogramPerimeter;whiteSpace=wrap;html=1;fixedSize=1;sketch=1;hachureGap=4;jiggle=2;curveFitting=1;fontFamily=Helvetica;fontSize=24;" parent="7" vertex="1">
                    <mxGeometry x="458.77" y="331.79999999999995" width="179.44" height="64.2" as="geometry"/>
                </mxCell>
                <mxCell id="j4v7v9u1vHbKPHmvHOut-13" value="" style="edgeStyle=none;sketch=1;hachureGap=4;jiggle=2;curveFitting=1;html=1;fontFamily=Helvetica;fontSize=24;" parent="7" source="j4v7v9u1vHbKPHmvHOut-14" target="j4v7v9u1vHbKPHmvHOut-16" edge="1">
                    <mxGeometry relative="1" as="geometry"/>
                </mxCell>
                <mxCell id="j4v7v9u1vHbKPHmvHOut-19" value="r == NUMBER" style="rhombus;whiteSpace=wrap;html=1;sketch=1;hachureGap=4;jiggle=2;curveFitting=1;fontFamily=Helvetica;fontSize=24;" parent="7" vertex="1">
                    <mxGeometry x="433" y="433" width="220" height="147" as="geometry"/>
                </mxCell>
                <mxCell id="j4v7v9u1vHbKPHmvHOut-15" value="" style="edgeStyle=none;sketch=1;hachureGap=4;jiggle=2;curveFitting=1;html=1;fontFamily=Helvetica;fontSize=24;" parent="7" source="j4v7v9u1vHbKPHmvHOut-16" target="j4v7v9u1vHbKPHmvHOut-19" edge="1">
                    <mxGeometry relative="1" as="geometry"/>
                </mxCell>
                <mxCell id="j4v7v9u1vHbKPHmvHOut-22" value="r % 7 == 0" style="rhombus;whiteSpace=wrap;html=1;sketch=1;hachureGap=4;jiggle=2;curveFitting=1;fontFamily=Helvetica;fontSize=24;" parent="7" vertex="1">
                    <mxGeometry x="461.9449180327868" y="635.2512716174974" width="165.5737704918033" height="107.78229908443541" as="geometry"/>
                </mxCell>
                <mxCell id="j4v7v9u1vHbKPHmvHOut-18" value="Iya" style="edgeStyle=none;sketch=1;hachureGap=4;jiggle=2;curveFitting=1;html=1;fontFamily=Helvetica;fontSize=24;" parent="7" source="j4v7v9u1vHbKPHmvHOut-19" target="j4v7v9u1vHbKPHmvHOut-22" edge="1">
                    <mxGeometry relative="1" as="geometry"/>
                </mxCell>
                <mxCell id="j4v7v9u1vHbKPHmvHOut-28" value="luas = phi * r^2" style="rounded=0;whiteSpace=wrap;html=1;sketch=1;hachureGap=4;jiggle=2;curveFitting=1;fontFamily=Helvetica;fontSize=24;" parent="7" vertex="1">
                    <mxGeometry x="441.32" y="797" width="206.2" height="69.64" as="geometry"/>
                </mxCell>
                <mxCell id="j4v7v9u1vHbKPHmvHOut-30" value="keliling = 2 * phi * r" style="rounded=0;whiteSpace=wrap;html=1;sketch=1;hachureGap=4;jiggle=2;curveFitting=1;fontFamily=Helvetica;fontSize=24;" parent="7" vertex="1">
                    <mxGeometry x="413.18" y="921.29" width="256.14" height="70.71" as="geometry"/>
                </mxCell>
                <mxCell id="j4v7v9u1vHbKPHmvHOut-27" value="" style="edgeStyle=none;sketch=1;hachureGap=4;jiggle=2;curveFitting=1;html=1;fontFamily=Helvetica;fontSize=24;" parent="7" source="j4v7v9u1vHbKPHmvHOut-28" target="j4v7v9u1vHbKPHmvHOut-30" edge="1">
                    <mxGeometry relative="1" as="geometry"/>
                </mxCell>
                <mxCell id="j4v7v9u1vHbKPHmvHOut-31" value="SELESAI" style="ellipse;whiteSpace=wrap;html=1;sketch=1;hachureGap=4;jiggle=2;curveFitting=1;fontFamily=Helvetica;fontSize=24;" parent="7" vertex="1">
                    <mxGeometry x="481.76" y="1283" width="133.45" height="87" as="geometry"/>
                </mxCell>
                <mxCell id="j4v7v9u1vHbKPHmvHOut-34" value="OUTPUT&lt;br&gt;luas" style="shape=parallelogram;perimeter=parallelogramPerimeter;whiteSpace=wrap;html=1;fixedSize=1;sketch=1;hachureGap=4;jiggle=2;curveFitting=1;fontFamily=Helvetica;fontSize=24;" parent="7" vertex="1">
                    <mxGeometry x="435.26" y="1036" width="218.95" height="75.95" as="geometry"/>
                </mxCell>
                <mxCell id="j4v7v9u1vHbKPHmvHOut-29" value="" style="edgeStyle=none;sketch=1;hachureGap=4;jiggle=2;curveFitting=1;html=1;fontFamily=Helvetica;fontSize=24;" parent="7" source="j4v7v9u1vHbKPHmvHOut-30" target="j4v7v9u1vHbKPHmvHOut-34" edge="1">
                    <mxGeometry relative="1" as="geometry"/>
                </mxCell>
                <mxCell id="j4v7v9u1vHbKPHmvHOut-35" value="" style="edgeStyle=none;sketch=1;hachureGap=4;jiggle=2;curveFitting=1;html=1;fontFamily=Helvetica;fontSize=24;" parent="7" source="j4v7v9u1vHbKPHmvHOut-36" target="j4v7v9u1vHbKPHmvHOut-31" edge="1">
                    <mxGeometry relative="1" as="geometry"/>
                </mxCell>
                <mxCell id="j4v7v9u1vHbKPHmvHOut-36" value="OUTPUT&lt;br&gt;keliling" style="shape=parallelogram;perimeter=parallelogramPerimeter;whiteSpace=wrap;html=1;fixedSize=1;sketch=1;hachureGap=4;jiggle=2;curveFitting=1;fontFamily=Helvetica;fontSize=24;" parent="7" vertex="1">
                    <mxGeometry x="447.96" y="1159" width="198.05" height="85.25" as="geometry"/>
                </mxCell>
                <mxCell id="j4v7v9u1vHbKPHmvHOut-33" value="" style="edgeStyle=none;sketch=1;hachureGap=4;jiggle=2;curveFitting=1;html=1;fontFamily=Helvetica;fontSize=24;" parent="7" source="j4v7v9u1vHbKPHmvHOut-34" target="j4v7v9u1vHbKPHmvHOut-36" edge="1">
                    <mxGeometry relative="1" as="geometry"/>
                </mxCell>
                <mxCell id="j4v7v9u1vHbKPHmvHOut-37" style="edgeStyle=none;sketch=1;hachureGap=4;jiggle=2;curveFitting=1;html=1;entryX=0;entryY=0.5;entryDx=0;entryDy=0;fontFamily=Helvetica;fontSize=24;exitX=0.5;exitY=0;exitDx=0;exitDy=0;" parent="7" source="j4v7v9u1vHbKPHmvHOut-38" target="j4v7v9u1vHbKPHmvHOut-16" edge="1">
                    <mxGeometry relative="1" as="geometry">
                        <Array as="points">
                            <mxPoint x="188.21" y="363"/>
                        </Array>
                        <mxPoint x="170.54570919458283" y="461.970498474059" as="sourcePoint"/>
                    </mxGeometry>
                </mxCell>
                <mxCell id="j4v7v9u1vHbKPHmvHOut-38" value="OUTPUT&lt;br&gt;&quot;masukan angka&amp;nbsp;&quot;" style="shape=parallelogram;perimeter=parallelogramPerimeter;whiteSpace=wrap;html=1;fixedSize=1;sketch=1;hachureGap=4;jiggle=2;curveFitting=1;fontFamily=Helvetica;fontSize=24;" parent="7" vertex="1">
                    <mxGeometry x="24" y="451.18" width="330.33" height="110.65" as="geometry"/>
                </mxCell>
                <mxCell id="j4v7v9u1vHbKPHmvHOut-17" value="Tidak" style="edgeStyle=none;sketch=1;hachureGap=4;jiggle=2;curveFitting=1;html=1;exitX=0;exitY=0.5;exitDx=0;exitDy=0;fontFamily=Helvetica;fontSize=24;entryX=1;entryY=0.5;entryDx=0;entryDy=0;" parent="7" source="j4v7v9u1vHbKPHmvHOut-19" target="j4v7v9u1vHbKPHmvHOut-38" edge="1">
                    <mxGeometry relative="1" as="geometry">
                        <Array as="points"/>
                        <mxPoint x="321.882131147541" y="494.3051881993896" as="targetPoint"/>
                    </mxGeometry>
                </mxCell>
                <mxCell id="4" value="&lt;font face=&quot;Helvetica&quot;&gt;phi = 3.14&lt;/font&gt;" style="rounded=0;whiteSpace=wrap;html=1;sketch=1;hachureGap=4;jiggle=2;curveFitting=1;fontFamily=Architects Daughter;fontSource=https%3A%2F%2Ffonts.googleapis.com%2Fcss%3Ffamily%3DArchitects%2BDaughter;fontSize=20;" parent="7" vertex="1">
                    <mxGeometry x="253.74819672131147" y="667.5859613428281" width="98.36065573770492" height="49.745676500508644" as="geometry"/>
                </mxCell>
                <mxCell id="j4v7v9u1vHbKPHmvHOut-21" value="Tidak" style="edgeStyle=none;sketch=1;hachureGap=4;jiggle=2;curveFitting=1;html=1;fontFamily=Helvetica;fontSize=24;entryX=1;entryY=0.5;entryDx=0;entryDy=0;" parent="7" source="j4v7v9u1vHbKPHmvHOut-22" target="4" edge="1">
                    <mxGeometry relative="1" as="geometry">
                        <mxPoint x="374.2400000000004" y="689.142421159715" as="targetPoint"/>
                    </mxGeometry>
                </mxCell>
                <mxCell id="j4v7v9u1vHbKPHmvHOut-23" style="edgeStyle=none;sketch=1;hachureGap=4;jiggle=2;curveFitting=1;html=1;exitX=0.565;exitY=0.988;exitDx=0;exitDy=0;entryX=0;entryY=0.5;entryDx=0;entryDy=0;fontFamily=Helvetica;fontSize=24;exitPerimeter=0;" parent="7" source="4" target="j4v7v9u1vHbKPHmvHOut-28" edge="1">
                    <mxGeometry relative="1" as="geometry">
                        <Array as="points">
                            <mxPoint x="311.1252459016393" y="834.233977619532"/>
                        </Array>
                        <mxPoint x="311.1252459016393" y="730.1826042726348" as="sourcePoint"/>
                    </mxGeometry>
                </mxCell>
                <mxCell id="5" value="&lt;font face=&quot;Helvetica&quot;&gt;phi = 22/7&lt;/font&gt;" style="rounded=0;whiteSpace=wrap;html=1;sketch=1;hachureGap=4;jiggle=2;curveFitting=1;fontFamily=Architects Daughter;fontSource=https%3A%2F%2Ffonts.googleapis.com%2Fcss%3Ffamily%3DArchitects%2BDaughter;fontSize=20;" parent="7" vertex="1">
                    <mxGeometry x="732.4367213114755" y="670.0732451678535" width="98.36065573770492" height="49.745676500508644" as="geometry"/>
                </mxCell>
                <mxCell id="j4v7v9u1vHbKPHmvHOut-20" value="Iya" style="edgeStyle=none;sketch=1;hachureGap=4;jiggle=2;curveFitting=1;html=1;fontFamily=Helvetica;fontSize=24;entryX=-0.006;entryY=0.338;entryDx=0;entryDy=0;entryPerimeter=0;" parent="7" source="j4v7v9u1vHbKPHmvHOut-22" target="5" edge="1">
                    <mxGeometry relative="1" as="geometry">
                        <mxPoint x="719.2118577328313" y="687.6209920533223" as="targetPoint"/>
                    </mxGeometry>
                </mxCell>
                <mxCell id="j4v7v9u1vHbKPHmvHOut-25" style="edgeStyle=none;sketch=1;hachureGap=4;jiggle=2;curveFitting=1;html=1;entryX=1;entryY=0.5;entryDx=0;entryDy=0;fontFamily=Helvetica;fontSize=24;" parent="7" source="5" target="j4v7v9u1vHbKPHmvHOut-28" edge="1">
                    <mxGeometry relative="1" as="geometry">
                        <Array as="points">
                            <mxPoint x="785.7154098360656" y="834.233977619532"/>
                        </Array>
                        <mxPoint x="783.3510598014316" y="728.1098677517799" as="sourcePoint"/>
                    </mxGeometry>
                </mxCell>
            </root>
        </mxGraphModel>
    </diagram>
</mxfile>